<?xml version="1.0" encoding="utf-8"?>
<!-- Generator: Adobe Illustrator 14.0.0, SVG Export Plug-In . SVG Version: 6.00 Build 43363)  -->
<!DOCTYPE svg PUBLIC "-//W3C//DTD SVG 1.1//EN" "http://www.w3.org/Graphics/SVG/1.1/DTD/svg11.dtd">
<svg version="1.1" id="Ebene_1" xmlns="http://www.w3.org/2000/svg" xmlns:xlink="http://www.w3.org/1999/xlink" x="0px" y="0px"
	 width="80px" height="80px" viewBox="0 0 80 80" enable-background="new 0 0 80 80" xml:space="preserve">
<g id="XMLID_29_">
	<g>
		<path fill="#FFF3BF" d="M31.892,17.864c0.353-4.473,25.616-1.595,24.998,2.67C48.328,24.129,38.64,21.921,31.892,17.864z"/>
	</g>
	<g>
	</g>
</g>
<g id="XMLID_27_">
	<g>
		<path d="M56.682,5.126c0.8,1.075,1.402,0.779,1.402,0.779s-7.293,13.777-7.678,14.426s-3.787,2.093-2.358-0.177
			C49.477,17.89,56.682,5.126,56.682,5.126z"/>
	</g>
	<g>
	</g>
</g>
<g id="XMLID_26_">
	<g>
		<path fill="#FFF3BF" d="M38.167,64.721c7.164,1.216,10.12,3.122,10.083,5.798c-0.041,2.675-5.465,5.335-11.283,4
			c-7.969-1.829-11.262-3.854-11.236-6.405C25.752,65.562,31.009,63.505,38.167,64.721z"/>
	</g>
	<g>
	</g>
</g>
<path fill="none" d="M33.211,24.135c0,0,8.873,5.364,21.658,2.313"/>
<g id="XMLID_21_">
	<g>
		<linearGradient id="SVGID_1_" gradientUnits="userSpaceOnUse" x1="27.501" y1="46.8721" x2="55.624" y2="46.8721">
			<stop  offset="0" style="stop-color:#FFFFFF"/>
			<stop  offset="0.546" style="stop-color:#FF9200"/>
		</linearGradient>
		<path fill="url(#SVGID_1_)" d="M55.494,39.778c0,0,2.083,8.254-10.427,13.324c0,0-8.239,4.894-2.571,13.886
			c0,0,3.205,3.59-4.893,2.364c-8.104-1.227-5.657-3.039-3.907-3.933c1.756-0.899,5.813-8.764,1.839-13.429
			c0,0-11.236-4.909-7.132-15.917c1.688-4.524,2.545-5.527,4.811-11.938c0,0,8.416,4.379,21.657,2.312
			C54.87,26.448,53.748,28.516,55.494,39.778z"/>
	</g>
	<g>
	</g>
</g>
<g id="XMLID_20_">
	<g>
	</g>
	<g>
	</g>
</g>
<g>
	<g id="XMLID_19_">
		<g>
			<path fill="#FFFF00" d="M37.712,18.995c-2.005-10.515-11.917-6.559-13.21-5.126c-1.288,1.433-3.875,4.514,0.239,8.463
				c4.114,3.95,8.395,1.979,8.395,1.979l1.372,2.486c-14.354,4.575-15.616-8.262-15.6-8.794c0.016-0.521,0.473-9.817,11.48-8.268
				c11.002,1.549,10.883,9.051,10.883,9.051L37.712,18.995z"/>
			<path fill="#FFFF00" d="M31.598,18.327c1.517-4.998,3.512-3.687,3.512-3.687s0.795,2.664,0.919,4.171
				C36.153,20.324,31.598,18.327,31.598,18.327z"/>
			<path fill="#FFFF00" d="M32.309,12.871c1.798,0.931-2.197,4.789-2.197,4.789s-0.951-2.045-1.766-3.772
				C27.53,12.154,32.309,12.871,32.309,12.871z"/>
			<path fill="#FFFF00" d="M25.442,21.297c-1.964-1.868,3.725-2.591,3.725-2.591c0.826,2.272,0.447,4.538-0.146,5.046
				C28.434,24.261,27.405,23.165,25.442,21.297z"/>
			<path fill="#FFFF00" d="M25.541,14.542c1.709-2.591,3.179,3.068,3.179,3.068c-1.771,1.421-4.161,1.017-4.514-0.159
				C23.857,16.275,25.541,14.542,25.541,14.542z"/>
		</g>
		<g>
		</g>
	</g>
	<path fill="none" d="M30.921,20.648c0,0-1.408,4.344,0.686,3.649c2.089-0.698,3.275-1.017,3.092-1.63
		C34.517,22.051,32.934,20.922,30.921,20.648z"/>
</g>
</svg>
