<?xml version="1.0" encoding="utf-8"?>
<!-- Generator: Adobe Illustrator 14.0.0, SVG Export Plug-In . SVG Version: 6.00 Build 43363)  -->
<!DOCTYPE svg PUBLIC "-//W3C//DTD SVG 1.1//EN" "http://www.w3.org/Graphics/SVG/1.1/DTD/svg11.dtd">
<svg version="1.1" id="Ebene_1" xmlns="http://www.w3.org/2000/svg" xmlns:xlink="http://www.w3.org/1999/xlink" x="0px" y="0px"
	 width="80px" height="80px" viewBox="0 0 80 80" enable-background="new 0 0 80 80" xml:space="preserve">
<g>
	<g id="XMLID_24_">
		<g>
			<linearGradient id="SVGID_1_" gradientUnits="userSpaceOnUse" x1="31.3301" y1="13.6484" x2="61.7744" y2="13.6484">
				<stop  offset="0" style="stop-color:#FFFFFF"/>
				<stop  offset="0.3832" style="stop-color:#FFFFFD"/>
				<stop  offset="0.5212" style="stop-color:#FFFEF6"/>
				<stop  offset="0.6196" style="stop-color:#FFFBEA"/>
				<stop  offset="0.6992" style="stop-color:#FEF9DA"/>
				<stop  offset="0.7674" style="stop-color:#FEF5C4"/>
				<stop  offset="0.8277" style="stop-color:#FEF0A8"/>
				<stop  offset="0.8823" style="stop-color:#FDEB88"/>
				<stop  offset="0.9325" style="stop-color:#FDE462"/>
				<stop  offset="0.9772" style="stop-color:#FCDD39"/>
				<stop  offset="1" style="stop-color:#FCD921"/>
			</linearGradient>
			<path fill="url(#SVGID_1_)" d="M31.353,11.09c-1.004-3.116,31.835,1.871,30.375,5.597C47.462,19.255,31.353,11.09,31.353,11.09z"
				/>
			<linearGradient id="SVGID_2_" gradientUnits="userSpaceOnUse" x1="29.6758" y1="23.7129" x2="58.5088" y2="23.7129">
				<stop  offset="0" style="stop-color:#FFFFFF"/>
				<stop  offset="0.2577" style="stop-color:#FCD921"/>
			</linearGradient>
			<path fill="url(#SVGID_2_)" d="M29.685,20.797c0.62-3.402,29.651,3.007,28.806,5.953c-0.005,0.005-0.005,0.005-0.005,0.011v0.005
				c-0.96,2.93-29.388-2.546-28.801-5.964V20.797z"/>
			<linearGradient id="SVGID_3_" gradientUnits="userSpaceOnUse" x1="21.7173" y1="47.3711" x2="58.4854" y2="47.3711">
				<stop  offset="0" style="stop-color:#FFFFFF"/>
				<stop  offset="0.2577" style="stop-color:#FCD921"/>
			</linearGradient>
			<path fill="url(#SVGID_3_)" d="M29.685,20.802c-0.587,3.418,27.841,8.894,28.801,5.964C53.777,42.497,45.75,70.979,45.75,70.979
				c-5.915,6.946-24.855,0.027-24.005-4.021C21.767,66.843,26.936,36.774,29.685,20.802z M42.831,66.08
				c1.443-0.773,1.893-2.37,1.01-3.556l-2.068-2.766c-0.774-1.037-2.311-1.421-3.644-0.981l1.086-1.542
				c0.851-1.207,0.351-2.787-1.114-3.534l-2.546-1.3c-1.465-0.746-3.336-0.373-4.181,0.828l-1.981,2.815
				c-0.757,1.08-0.433,2.463,0.697,3.275l-2.244,0.691c-1.46,0.449-2.162,1.942-1.575,3.336l1.032,2.42
				c0.593,1.394,2.261,2.156,3.72,1.706l3.413-1.059c0.406-0.127,0.757-0.33,1.032-0.593l0.653,0.878
				c0.889,1.185,2.771,1.514,4.208,0.735L42.831,66.08z"/>
			<linearGradient id="SVGID_4_" gradientUnits="userSpaceOnUse" x1="35.2153" y1="63.2275" x2="44.293" y2="63.2275">
				<stop  offset="0" style="stop-color:#FFFFFF"/>
				<stop  offset="0.1177" style="stop-color:#FFFEFA"/>
				<stop  offset="0.2514" style="stop-color:#FFFCED"/>
				<stop  offset="0.393" style="stop-color:#FEF8D6"/>
				<stop  offset="0.54" style="stop-color:#FEF2B6"/>
				<stop  offset="0.6912" style="stop-color:#FDEB8D"/>
				<stop  offset="0.8455" style="stop-color:#FDE35B"/>
				<stop  offset="1" style="stop-color:#FCD921"/>
			</linearGradient>
			<path fill="url(#SVGID_4_)" d="M43.841,62.524c0.883,1.186,0.434,2.782-1.01,3.556l-2.502,1.355
				c-1.438,0.778-3.32,0.449-4.208-0.735l-0.653-0.878c0.724-0.681,0.971-1.739,0.543-2.743l-0.795-1.866
				c0.823-0.115,1.569-0.521,2.024-1.169l0.889-1.267c1.333-0.439,2.87-0.056,3.644,0.981L43.841,62.524z"/>
			<linearGradient id="SVGID_5_" gradientUnits="userSpaceOnUse" x1="28.9834" y1="56.2471" x2="39.6299" y2="56.2471">
				<stop  offset="0" style="stop-color:#FFFFFF"/>
				<stop  offset="0.1177" style="stop-color:#FFFEFA"/>
				<stop  offset="0.2514" style="stop-color:#FFFCED"/>
				<stop  offset="0.393" style="stop-color:#FEF8D6"/>
				<stop  offset="0.54" style="stop-color:#FEF2B6"/>
				<stop  offset="0.6912" style="stop-color:#FDEB8D"/>
				<stop  offset="0.8455" style="stop-color:#FDE35B"/>
				<stop  offset="1" style="stop-color:#FCD921"/>
			</linearGradient>
			<path fill="url(#SVGID_5_)" d="M38.102,53.701c1.465,0.747,1.964,2.327,1.114,3.534l-1.086,1.542
				c-0.192,0.065-0.378,0.143-0.56,0.241l-2.502,1.355c-0.061,0.032-0.121,0.065-0.176,0.104c-0.653-1.278-2.233-1.953-3.632-1.52
				l-1.168,0.362c-1.13-0.812-1.454-2.195-0.697-3.275l1.981-2.815c0.845-1.201,2.716-1.574,4.181-0.828L38.102,53.701z"/>
			<linearGradient id="SVGID_6_" gradientUnits="userSpaceOnUse" x1="34.8916" y1="59.9951" x2="38.1289" y2="59.9951">
				<stop  offset="0" style="stop-color:#FFFFFF"/>
				<stop  offset="0.1177" style="stop-color:#FFFEFA"/>
				<stop  offset="0.2514" style="stop-color:#FFFCED"/>
				<stop  offset="0.393" style="stop-color:#FEF8D6"/>
				<stop  offset="0.54" style="stop-color:#FEF2B6"/>
				<stop  offset="0.6912" style="stop-color:#FDEB8D"/>
				<stop  offset="0.8455" style="stop-color:#FDE35B"/>
				<stop  offset="1" style="stop-color:#FCD921"/>
			</linearGradient>
			<path fill="url(#SVGID_6_)" d="M38.129,58.777l-0.889,1.267c-0.455,0.647-1.201,1.054-2.024,1.169l-0.236-0.554
				c-0.027-0.061-0.055-0.126-0.088-0.182c0.055-0.038,0.115-0.071,0.176-0.104l2.502-1.355
				C37.75,58.92,37.937,58.843,38.129,58.777z"/>
			<linearGradient id="SVGID_7_" gradientUnits="userSpaceOnUse" x1="33.6055" y1="63.5176" x2="36.2212" y2="63.5176">
				<stop  offset="0" style="stop-color:#FFFFFF"/>
				<stop  offset="0.1177" style="stop-color:#FFFEFA"/>
				<stop  offset="0.2514" style="stop-color:#FFFCED"/>
				<stop  offset="0.393" style="stop-color:#FEF8D6"/>
				<stop  offset="0.54" style="stop-color:#FEF2B6"/>
				<stop  offset="0.6912" style="stop-color:#FDEB8D"/>
				<stop  offset="0.8455" style="stop-color:#FDE35B"/>
				<stop  offset="1" style="stop-color:#FCD921"/>
			</linearGradient>
			<path fill="url(#SVGID_7_)" d="M36.011,63.079c0.428,1.004,0.181,2.062-0.543,2.743l-1.41-1.888
				c-0.631-0.845-0.582-1.904,0.022-2.722c0.384,0.066,0.768,0.066,1.136,0L36.011,63.079z"/>
			<linearGradient id="SVGID_8_" gradientUnits="userSpaceOnUse" x1="26.0645" y1="63.4609" x2="35.4678" y2="63.4609">
				<stop  offset="0" style="stop-color:#FFFFFF"/>
				<stop  offset="0.1177" style="stop-color:#FFFEFA"/>
				<stop  offset="0.2514" style="stop-color:#FFFCED"/>
				<stop  offset="0.393" style="stop-color:#FEF8D6"/>
				<stop  offset="0.54" style="stop-color:#FEF2B6"/>
				<stop  offset="0.6912" style="stop-color:#FDEB8D"/>
				<stop  offset="0.8455" style="stop-color:#FDE35B"/>
				<stop  offset="1" style="stop-color:#FCD921"/>
			</linearGradient>
			<path fill="url(#SVGID_8_)" d="M34.058,63.935l1.41,1.888c-0.274,0.263-0.625,0.466-1.032,0.593l-3.413,1.059
				c-1.459,0.45-3.127-0.312-3.72-1.706l-1.032-2.42c-0.587-1.394,0.115-2.887,1.575-3.336l2.244-0.691
				c0.131,0.093,0.269,0.181,0.422,0.258l2.541,1.3c0.329,0.165,0.675,0.274,1.026,0.335C33.476,62.03,33.427,63.09,34.058,63.935z"
				/>
			<linearGradient id="SVGID_9_" gradientUnits="userSpaceOnUse" x1="34.0796" y1="60.8701" x2="35.2153" y2="60.8701">
				<stop  offset="0" style="stop-color:#FFFFFF"/>
				<stop  offset="0.1177" style="stop-color:#FFFEFA"/>
				<stop  offset="0.2514" style="stop-color:#FFFCED"/>
				<stop  offset="0.393" style="stop-color:#FEF8D6"/>
				<stop  offset="0.54" style="stop-color:#FEF2B6"/>
				<stop  offset="0.6912" style="stop-color:#FDEB8D"/>
				<stop  offset="0.8455" style="stop-color:#FDE35B"/>
				<stop  offset="1" style="stop-color:#FCD921"/>
			</linearGradient>
			<path fill="url(#SVGID_9_)" d="M34.979,60.659l0.236,0.554c-0.368,0.066-0.752,0.066-1.136,0
				c0.208-0.279,0.478-0.532,0.812-0.735C34.924,60.533,34.952,60.599,34.979,60.659z"/>
			<linearGradient id="SVGID_10_" gradientUnits="userSpaceOnUse" x1="29.6846" y1="18.9199" x2="61.7275" y2="18.9199">
				<stop  offset="0" style="stop-color:#FFFFFF"/>
				<stop  offset="0.3832" style="stop-color:#FFFFFD"/>
				<stop  offset="0.5212" style="stop-color:#FFFEF6"/>
				<stop  offset="0.6196" style="stop-color:#FFFBEA"/>
				<stop  offset="0.6992" style="stop-color:#FEF9DA"/>
				<stop  offset="0.7674" style="stop-color:#FEF5C4"/>
				<stop  offset="0.8277" style="stop-color:#FEF0A8"/>
				<stop  offset="0.8823" style="stop-color:#FDEB88"/>
				<stop  offset="0.9325" style="stop-color:#FDE462"/>
				<stop  offset="0.9772" style="stop-color:#FCDD39"/>
				<stop  offset="1" style="stop-color:#FCD921"/>
			</linearGradient>
			<path fill="url(#SVGID_10_)" d="M29.685,20.797c0.993-5.778,1.668-9.707,1.668-9.707s16.109,8.165,30.375,5.597
				c-0.329,0.543-1.574,4.505-3.237,10.063C59.336,23.804,30.305,17.395,29.685,20.797z"/>
			<linearGradient id="SVGID_11_" gradientUnits="userSpaceOnUse" x1="30.0908" y1="60.0195" x2="34.8916" y2="60.0195">
				<stop  offset="0" style="stop-color:#FFFFFF"/>
				<stop  offset="0.1177" style="stop-color:#FFFEFA"/>
				<stop  offset="0.2514" style="stop-color:#FFFCED"/>
				<stop  offset="0.393" style="stop-color:#FEF8D6"/>
				<stop  offset="0.54" style="stop-color:#FEF2B6"/>
				<stop  offset="0.6912" style="stop-color:#FDEB8D"/>
				<stop  offset="0.8455" style="stop-color:#FDE35B"/>
				<stop  offset="1" style="stop-color:#FCD921"/>
			</linearGradient>
			<path fill="url(#SVGID_11_)" d="M31.259,58.958c1.399-0.434,2.979,0.241,3.632,1.52c-0.334,0.203-0.604,0.456-0.812,0.735
				c-0.351-0.061-0.697-0.17-1.026-0.335l-2.541-1.3c-0.154-0.077-0.291-0.165-0.422-0.258L31.259,58.958z"/>
		</g>
		<g>
		</g>
	</g>
</g>
</svg>
