<?xml version="1.0" encoding="utf-8"?>
<!-- Generator: Adobe Illustrator 14.0.0, SVG Export Plug-In . SVG Version: 6.00 Build 43363)  -->
<!DOCTYPE svg PUBLIC "-//W3C//DTD SVG 1.1//EN" "http://www.w3.org/Graphics/SVG/1.1/DTD/svg11.dtd">
<svg version="1.1" id="Ebene_1" xmlns="http://www.w3.org/2000/svg" xmlns:xlink="http://www.w3.org/1999/xlink" x="0px" y="0px"
	 width="80px" height="80px" viewBox="0 0 80 80" enable-background="new 0 0 80 80" xml:space="preserve">
<g id="XMLID_25_">
	<g>
		<path fill="#E1F9F5" d="M32.317,47.978c0.437-2.404,17.31,0.433,16.833,3.056c0,0.004-0.004,0.008-0.004,0.012
			c-0.016,0.027-0.055,0.117-0.121,0.262c-0.277,0.363-0.968,0.569-1.92,0.651c-2.123-1.381-6.987-3.812-13.653-2.696
			c-0.625-0.348-1.026-0.699-1.12-1.038C32.321,48.063,32.317,47.978,32.317,47.978z"/>
		<path fill="#E1F9F5" d="M48.292,52.825c0.339-0.688,0.593-1.218,0.733-1.519c0.035-0.039,0.062-0.086,0.082-0.133
			c-1.394,4.578-4.508,18.021-6.155,19.511c-1.662,1.503-11.014-0.082-11.662-2.119c-0.621-1.951,0.89-19.073,1.019-20.494
			c0,0.051,0.008,0.102,0.023,0.152c0.02,0.245,0.055,0.671,0.105,1.229c0.382,4.152,1.764,15.67,5.358,16.229
			C41.255,66.22,46.297,56.849,48.292,52.825z"/>
		<path fill="#E1F9F5" d="M49.025,51.307c-0.141,0.301-0.395,0.831-0.733,1.519c0,0-0.41-0.363-1.187-0.867
			C48.058,51.876,48.748,51.67,49.025,51.307z"/>
		<linearGradient id="SVGID_1_" gradientUnits="userSpaceOnUse" x1="33.4526" y1="50.4883" x2="47.1055" y2="50.4883">
			<stop  offset="0" style="stop-color:#FFFFFF"/>
			<stop  offset="0.4233" style="stop-color:#E1E8F5"/>
		</linearGradient>
		<path fill="url(#SVGID_1_)" d="M47.105,51.958c-3.583,0.312-10.847-1.136-13.653-2.696C40.119,48.146,44.982,50.577,47.105,51.958
			z"/>
		<linearGradient id="SVGID_2_" gradientUnits="userSpaceOnUse" x1="32.438" y1="57.5781" x2="48.292" y2="57.5781">
			<stop  offset="0" style="stop-color:#FFFFFF"/>
			<stop  offset="0.4233" style="stop-color:#E1E8F5"/>
		</linearGradient>
		<path fill="url(#SVGID_2_)" d="M32.438,49.453c0,0,5.495,5.249,15.854,3.372c-1.995,4.023-7.037,13.395-10.496,12.856
			C34.202,65.123,32.82,53.605,32.438,49.453z"/>
		<linearGradient id="SVGID_3_" gradientUnits="userSpaceOnUse" x1="32.438" y1="51.2461" x2="48.292" y2="51.2461">
			<stop  offset="0" style="stop-color:#FFFFFF"/>
			<stop  offset="0.4233" style="stop-color:#E1E8F5"/>
		</linearGradient>
		<path fill="url(#SVGID_3_)" d="M33.453,49.262c2.806,1.561,10.07,3.009,13.653,2.696c0.776,0.504,1.187,0.867,1.187,0.867
			c-10.359,1.877-15.854-3.372-15.854-3.372C32.781,49.379,33.121,49.316,33.453,49.262z"/>
		<path fill="#E1F9F5" d="M33.453,49.262c-0.332,0.055-0.671,0.117-1.015,0.191c-0.051-0.559-0.086-0.984-0.105-1.229
			C32.426,48.562,32.828,48.914,33.453,49.262z"/>
	</g>
	<g>
	</g>
</g>
</svg>
