<?xml version="1.0" encoding="utf-8"?>
<!-- Generator: Adobe Illustrator 14.0.0, SVG Export Plug-In . SVG Version: 6.00 Build 43363)  -->
<!DOCTYPE svg PUBLIC "-//W3C//DTD SVG 1.1//EN" "http://www.w3.org/Graphics/SVG/1.1/DTD/svg11.dtd">
<svg version="1.1" id="Ebene_1" xmlns="http://www.w3.org/2000/svg" xmlns:xlink="http://www.w3.org/1999/xlink" x="0px" y="0px"
	 width="80px" height="80px" viewBox="0 0 80 80" enable-background="new 0 0 80 80" xml:space="preserve">
<g id="XMLID_38_">
	<g>
		
			<linearGradient id="SVGID_1_" gradientUnits="userSpaceOnUse" x1="282.4424" y1="-358.4053" x2="321.2979" y2="-358.4053" gradientTransform="matrix(1 0 0 -1 -257.5 -301)">
			<stop  offset="0" style="stop-color:#FFFFFF"/>
			<stop  offset="0.3436" style="stop-color:#DEB826"/>
		</linearGradient>
		<path fill="url(#SVGID_1_)" d="M63.798,49c-1.063,6.771-2.555,12.039-4.083,16.071c-0.019-0.004-0.036-0.01-0.054-0.017
			l-2.433,5.552c-2.325,4.378-4.233,6.034-4.233,6.034c-20.859,0.098-26.502-5.441-26.502-5.441
			c-2.652-10.727-1.363-20.668-0.104-26.422c1.674,1.605,4.688,1.674,4.688,1.674c5.241-1.818,3.613-6.943,3.613-6.943
			c2.404,2.231,6.438,0.673,6.438,0.673c4.532,3.727,5.545-2.013,5.545-2.013c2.721,8.686,7.001,1.99,7.001,1.99
			s1.173,3.976,3.486,4.723c3.359,1.089,4.538-0.812,4.706-1.128c0.011,0.012,0.017,0.018,0.027,0.021
			C61.934,44.282,62.268,47.618,63.798,49z"/>
		
			<linearGradient id="SVGID_2_" gradientUnits="userSpaceOnUse" x1="314.2568" y1="-361.6387" x2="330.6572" y2="-361.6387" gradientTransform="matrix(1 0 0 -1 -257.5 -301)">
			<stop  offset="0" style="stop-color:#FFFFFF"/>
			<stop  offset="0.2393" style="stop-color:#FFE8C0"/>
		</linearGradient>
		<path fill="url(#SVGID_2_)" d="M62.677,55.201l1.006-5.027c0.334-0.266,0.655-0.483,0.965-0.667
			c0.57,0.184,1.254,0.131,2.077-0.27c0.304-0.151,0.562-0.312,0.775-0.489c3.193,0.263,4.839,4.435,4.839,4.435
			c4.097,13.208-8.433,15.56-9.952,16.424c-0.678,0.351-2.225,2.404-3.502,2.831c-1.271,0.424-2.128-0.76-2.128-0.76l0.47-1.07
			c0.801-1.508,1.646-3.336,2.486-5.534c1.96,0.633,3.422-0.184,3.422-0.184c7.22-2.876,5.523-9.164,3.399-10.297
			C64.406,53.464,62.677,55.201,62.677,55.201z"/>
		<path fill="#DEB826" d="M33.545,3.285c3.296-1.145-3.152,12.839-3.152,12.839C30.053,1.697,30.255,4.423,33.545,3.285z"/>
		<path fill="#DEB826" d="M22.921,20.489c-4.85-3.681-16.562,9.377-12.195,1.353C14.787,14.37,21.838,19.616,22.921,20.489z"/>
		<path fill="#DEB826" d="M8.165,3.394c3.826-3.826,8.854,10.009,8.985,10.394C16.812,13.616,4.345,7.219,8.165,3.394z"/>
	</g>
	<g>
		<path fill="none" stroke="#000000" d="M30.525,49.327c-0.157,1.571-1.18,5.183,0,6.443c1.18,1.261,6.522,0.471,6.522,0.471"/>
		<path fill="none" stroke="#000000" d="M43.064,47.986c-0.421,2.03-1.949,6.632-1.144,8.415c0.805,1.783,5.603,1.387,5.603,1.387"
			/>
		<path fill="none" stroke="#000000" d="M53.534,50.117c0.26,2.213-3.136,6.188-2.687,8.229c0.45,2.036,4.9,2.922,4.9,2.922"/>
		<path fill="none" stroke="#000000" d="M30.082,58.537c-0.143,1.531-1.052,5.057,0,6.282c1.047,1.23,5.793,0.466,5.793,0.466"/>
		<path fill="none" stroke="#000000" d="M41.289,59.853c-0.075,2.175-0.708,3.458-0.708,4.953c0,1.383,4.025,1.962,4.025,1.962"/>
		<path fill="none" stroke="#000000" d="M50.376,62.506c-0.258,1.843-2.271,3.137-1.528,4.171c0.614,0.864,2.501,1.271,2.501,1.271"
			/>
	</g>
</g>
<g id="XMLID_37_">
	<g>
		
			<linearGradient id="SVGID_3_" gradientUnits="userSpaceOnUse" x1="275.624" y1="-335.6177" x2="326.9834" y2="-335.6177" gradientTransform="matrix(1 0 0 -1 -257.5 -301)">
			<stop  offset="0" style="stop-color:#FFFFFF"/>
			<stop  offset="0.2393" style="stop-color:#FFE8C0"/>
		</linearGradient>
		<path fill="url(#SVGID_3_)" d="M40.717,23.553c0.282-1.421,1.393-4.136,5.694-3.147c5.104,1.163,4.447,4.895,4.233,5.712
			c0.3-0.955,1.98-5.821,5.104-5.269c1.916,0.345,3.324,2.254,3.492,2.934c0.11,0.443,0.88,2.813-0.081,4.102
			c-0.885,0.385-1.506,0.812-1.506,0.812c0.732-0.098,1.207-0.397,1.506-0.812c1.812-0.788,4.718-1.386,5.599,2.254
			c0,0-0.082,2.646-0.927,3.928c-0.748,0.293-1.242,0.673-1.242,0.673c0.534,0.081,0.938-0.207,1.242-0.673
			c1.093-0.431,2.721-0.667,4.101,0.771c2.317,2.416,2.317,10.895-1.91,7.316c0.215,0.207,4.941,4.999,0.703,7.082
			c-4.338,2.134-4.838-5.534-4.838-5.534s-1.071,2.364-4.729,1.173c-2.313-0.741-3.485-4.723-3.485-4.723s-4.281,6.697-7.001-1.984
			c0,0-1.014,5.741-5.547,2.013c0,0-4.033,1.559-6.437-0.672c0,0,1.628,5.125-3.613,6.943c0,0-6.92-0.16-5.608-5.551
			c0,0-6.639,3.435-7.34-3.877c0,0-0.352-9.543,6.283-5.424c-0.708-0.478-3.412-2.796,1.058-7.944
			c4.861-5.597,8.117-0.022,8.387,0.466c-0.155-0.415-1.587-4.406,2.336-4.498C39.278,19.55,40.51,22.179,40.717,23.553z
			 M40.717,23.56c-0.097,0.477-0.097,0.805-0.097,0.805C40.745,24.336,40.791,24.019,40.717,23.56z"/>
		
			<linearGradient id="SVGID_4_" gradientUnits="userSpaceOnUse" x1="320.0879" y1="-335.4111" x2="321.3291" y2="-335.4111" gradientTransform="matrix(1 0 0 -1 -257.5 -301)">
			<stop  offset="0" style="stop-color:#FFFFFF"/>
			<stop  offset="0.2393" style="stop-color:#FFE8C0"/>
		</linearGradient>
		<path fill="url(#SVGID_4_)" d="M63.829,34.068c-0.304,0.467-0.707,0.754-1.241,0.673C62.588,34.741,63.082,34.362,63.829,34.068z"
			/>
		
			<linearGradient id="SVGID_5_" gradientUnits="userSpaceOnUse" x1="315.1514" y1="-329.291" x2="316.6582" y2="-329.291" gradientTransform="matrix(1 0 0 -1 -257.5 -301)">
			<stop  offset="0" style="stop-color:#FFFFFF"/>
			<stop  offset="0.2393" style="stop-color:#FFE8C0"/>
		</linearGradient>
		<path fill="url(#SVGID_5_)" d="M59.158,27.885c-0.299,0.414-0.774,0.714-1.507,0.812C57.651,28.695,58.273,28.27,59.158,27.885z"
			/>
		
			<linearGradient id="SVGID_6_" gradientUnits="userSpaceOnUse" x1="298.1191" y1="-324.9619" x2="298.253" y2="-324.9619" gradientTransform="matrix(1 0 0 -1 -257.5 -301)">
			<stop  offset="0" style="stop-color:#FFFFFF"/>
			<stop  offset="0.2393" style="stop-color:#FFE8C0"/>
		</linearGradient>
		<path fill="url(#SVGID_6_)" d="M40.717,23.56c0.075,0.46,0.029,0.776-0.097,0.805C40.618,24.365,40.618,24.036,40.717,23.56z"/>
	</g>
</g>
</svg>
