<?xml version="1.0" encoding="utf-8"?>
<!-- Generator: Adobe Illustrator 14.0.0, SVG Export Plug-In . SVG Version: 6.00 Build 43363)  -->
<!DOCTYPE svg PUBLIC "-//W3C//DTD SVG 1.1//EN" "http://www.w3.org/Graphics/SVG/1.1/DTD/svg11.dtd">
<svg version="1.1" id="Ebene_1" xmlns="http://www.w3.org/2000/svg" xmlns:xlink="http://www.w3.org/1999/xlink" x="0px" y="0px"
	 width="80px" height="80px" viewBox="0 0 80 80" enable-background="new 0 0 80 80" xml:space="preserve">
<g id="XMLID_23_">
	<g>
		<linearGradient id="SVGID_1_" gradientUnits="userSpaceOnUse" x1="25.9829" y1="40.4116" x2="58.3584" y2="40.4116">
			<stop  offset="0" style="stop-color:#FFFFFF"/>
			<stop  offset="0.2393" style="stop-color:#B11F1F"/>
		</linearGradient>
		<path fill="url(#SVGID_1_)" d="M58.221,19.621c0.01-0.042,0.015-0.084,0.015-0.126l0.051-0.005
			c0.621,7.217-2.976,11.802-2.976,11.802c-1.89,2.496-4.949,5.766-10.575,5.714c-5.621-0.051-6.27,10.738-6.27,10.738
			c-2.043,13.225-1.315,17.727-0.634,19.252c-2.015-0.569-3.564-0.905-3.564-0.905s-1.236-0.111-2.967-0.177
			c2.58-2.641,4.012-8.663,5.448-18.454c1.722-11.713-0.336-10.981-3.937-12.758c-3.904-1.926-6.204-7.743-6.204-7.743
			c-1.423-4.367-0.191-9.26,1.441-13.131C27.854,17.559,57.54,23.012,58.221,19.621z"/>
		<linearGradient id="SVGID_2_" gradientUnits="userSpaceOnUse" x1="28.0483" y1="16.8008" x2="58.2354" y2="16.8008">
			<stop  offset="0" style="stop-color:#FFFFFF"/>
			<stop  offset="0.2393" style="stop-color:#B11F1F"/>
		</linearGradient>
		<path fill="url(#SVGID_2_)" d="M28.269,13.323c1.535-1.787,29.967,2.649,29.967,6.171c0,0.042-0.005,0.084-0.015,0.126
			c-0.681,3.391-30.367-2.062-30.171-5.793c0.065-0.164,0.135-0.322,0.205-0.48C28.254,13.337,28.264,13.333,28.269,13.323z"/>
		<linearGradient id="SVGID_3_" gradientUnits="userSpaceOnUse" x1="31.9302" y1="8.6123" x2="55.6074" y2="8.6123">
			<stop  offset="0" style="stop-color:#FFFFFF"/>
			<stop  offset="0.1656" style="stop-color:#FFEDE3"/>
		</linearGradient>
		<path fill="url(#SVGID_3_)" d="M31.931,6.816c0.424-2.57,23.977,2.104,23.674,3.923C55.301,12.558,31.8,8.015,31.931,6.82V6.816z"
			/>
		<linearGradient id="SVGID_4_" gradientUnits="userSpaceOnUse" x1="20.564" y1="69.9492" x2="46.9629" y2="69.9492">
			<stop  offset="0" style="stop-color:#FFFFFF"/>
			<stop  offset="0.1656" style="stop-color:#FFEDE3"/>
		</linearGradient>
		<path fill="url(#SVGID_4_)" d="M37.832,66.996c3.872,1.101,9.479,3.088,9.115,5.271c-0.551,3.321-11.279,0.988-13.299,0.657
			c-2.02-0.336-13.766-2.062-13.052-5.028c0.49-2.048,6.834-2.127,10.706-1.982c-0.504,0.518-1.054,0.909-1.656,1.171
			c-3.676,1.595,3.182,2.071,4.091,2.22c0.91,0.149,8.196,2.021,4.711-1.529C38.447,67.775,38.144,67.715,37.832,66.996z"/>
		<linearGradient id="SVGID_5_" gradientUnits="userSpaceOnUse" x1="28.5698" y1="67.9219" x2="39.3848" y2="67.9219">
			<stop  offset="0" style="stop-color:#FFFFFF"/>
			<stop  offset="0.2393" style="stop-color:#B11F1F"/>
		</linearGradient>
		<path fill="url(#SVGID_5_)" d="M38.447,67.775c3.484,3.55-3.802,1.679-4.711,1.529c-0.91-0.148-7.767-0.625-4.091-2.22
			c0.602-0.262,1.152-0.653,1.656-1.171c1.73,0.065,2.967,0.177,2.967,0.177s1.549,0.336,3.564,0.905
			C38.144,67.715,38.447,67.775,38.447,67.775z"/>
		<linearGradient id="SVGID_6_" gradientUnits="userSpaceOnUse" x1="28.2544" y1="13.1572" x2="58.2861" y2="13.1572">
			<stop  offset="0" style="stop-color:#FFFFFF"/>
			<stop  offset="0.1656" style="stop-color:#FFEDE3"/>
		</linearGradient>
		<path fill="url(#SVGID_6_)" d="M28.269,13.323c-0.004,0.009-0.014,0.014-0.014,0.023c1.68-3.821,3.676-6.526,3.676-6.526
			c-0.131,1.194,23.37,5.738,23.674,3.918c1.688,3.2,2.463,6.148,2.682,8.751l-0.051,0.005
			C58.235,15.973,29.803,11.537,28.269,13.323z"/>
	</g>
	<g>
	</g>
</g>
<path fill="none" d="M34.254,35.403c0,0,3.588,2.94,10.481,1.604L34.254,35.403z"/>
</svg>
